<svg xmlns="http://www.w3.org/2000/svg" data-name="Layer 1" x="0px" y="0px" viewBox="13.62 5 72.76 90"><defs><style>.cls-1{fill - rule:evenodd;}</style></defs><path class="cls-1" d="M74.123,6.944a6.638,6.638,0,1,0,1.945,4.695,6.618,6.618,0,0,0-1.945-4.695ZM13.621,95H85V88.293a6.73,6.73,0,0,0-6.707-6.708H20.329a6.731,6.731,0,0,0-6.708,6.708V95ZM73.05,49.353a8.323,8.323,0,0,0-14.2-5.885l-15.44,15.44A8.323,8.323,0,0,0,55.184,70.679l15.44-15.44a8.3,8.3,0,0,0,2.426-5.886Zm-9.9,16.558h1.547A6.73,6.73,0,0,1,71.4,72.619v6.707H27.219V72.619a6.73,6.73,0,0,1,6.707-6.708h4.859a10.584,10.584,0,0,0,18,6.366l6.366-6.366Zm-37.7-43.647a2.24,2.24,0,1,0,.656,1.584,2.233,2.233,0,0,0-.656-1.584Zm-1.584-2.915a4.5,4.5,0,1,1-3.181,1.318,4.481,4.481,0,0,1,3.181-1.318Zm7.011-2.512a9.915,9.915,0,1,1-7.011-2.9,9.884,9.884,0,0,1,7.011,2.9Zm5.058,8.617a12.342,12.342,0,0,0,.1-1.606,12.12,12.12,0,0,0-2.526-7.425L60.9,9.084a8.915,8.915,0,0,0,2.234,8.847q.093.093.189.183l-27.393,7.34Zm-4.672,8.064a12.233,12.233,0,0,0,4.068-5.567l3.411-.914,21.819,12.6a10.485,10.485,0,0,0-3.3,2.235l-4.219,4.22L31.261,33.518ZM51.336,62.756a2.864,2.864,0,0,1,0,4.051h0a2.865,2.865,0,0,1-4.891-2.025h0a2.868,2.868,0,0,1,4.895-2.026Zm1.6-1.6h0a5.123,5.123,0,0,1,0,7.246h0a5.124,5.124,0,0,1-8.747-3.623h0a5.121,5.121,0,0,1,8.743-3.623ZM66.752,47.34a2.864,2.864,0,0,1,0,4.051h0a2.864,2.864,0,1,1-2.025-4.89v0a2.857,2.857,0,0,1,2.025.843Zm1.6-1.6h0a5.123,5.123,0,0,1,0,7.246h0a5.124,5.124,0,1,1-3.623-8.747v.005a5.106,5.106,0,0,1,3.623,1.5Zm.812-25.209c.089,0,.178,0,.267,0a8.9,8.9,0,0,0,7.835-4.678l6.79,11.76-8.1,4.677L69.162,20.533ZM82.106,31.347l-1.949,1.124,4.121,7.138a1.125,1.125,0,0,0,1.951-1.121Z"/></svg>