<?xml version="1.0" encoding="UTF-8"?>
<!DOCTYPE svg PUBLIC "-//W3C//DTD SVG 1.1//EN" "http://www.w3.org/Graphics/SVG/1.1/DTD/svg11.dtd">
<!-- Creator: CorelDRAW (Evaluation Version) -->
<svg xmlns="http://www.w3.org/2000/svg" xml:space="preserve" width="3103px" height="820px" version="1.1" style="shape-rendering:geometricPrecision; text-rendering:geometricPrecision; image-rendering:optimizeQuality; fill-rule:evenodd; clip-rule:evenodd"
viewBox="0 0 3103 820.15"
 xmlns:xlink="http://www.w3.org/1999/xlink"
 xmlns:xodm="http://www.corel.com/coreldraw/odm/2003">
 <defs>
  <style type="text/css">
   <![CDATA[
    .str0 {stroke:#F15E32;stroke-width:4.17;stroke-miterlimit:10}
    .str1 {stroke:#F15E32;stroke-width:0.9;stroke-miterlimit:10}
    .fil1 {fill:none;fill-rule:nonzero}
    .fil2 {fill:#2D2A2B;fill-rule:nonzero}
    .fil0 {fill:#F15E32;fill-rule:nonzero}
   ]]>
  </style>
 </defs>
 <g id="Layer_x0020_1">
  <metadata id="CorelCorpID_0Corel-Layer"/>
  <polygon class="fil0" points="1293.34,809.75 1285.6,809.75 1285.6,579.12 1293.34,579.12 "/>
  <path class="fil1 str0" d="M1347 518.85c0,33.47 -27.49,60.6 -61.42,60.6 -33.86,0 -61.34,-27.13 -61.34,-60.6 0,-33.48 27.48,-60.61 61.34,-60.61 33.93,0 61.42,27.13 61.42,60.61z"/>
  <g id="_655027976">
   <polygon class="fil0" points="1293.34,817.8 9.99,817.8 9.99,809.68 1293.34,809.68 "/>
   <g>
    <path class="fil2" d="M384.48 552.66c11.04,19.09 16.96,40.89 16.96,63.06 0,22.11 -5.92,43.92 -16.96,63 -22.93,39.55 -65.79,64.03 -111.84,64.03l-127.79 0c-56.56,0 -104.26,-37.73 -118.57,-88.95 -2.88,-10.32 -4.42,-21.16 -4.42,-32.35l88.36 0c0,14.92 9.8,27.69 23.41,32.35l139.01 0c21.23,0 38.54,-17.08 38.54,-38.08 0,-21.06 -17.31,-38.02 -38.54,-38.02l-121.99 0c-36.12,0 -70.17,-15.11 -94.28,-40.61 -6.68,-7.04 -12.58,-14.93 -17.61,-23.49 -11.06,-19.08 -16.9,-40.96 -16.9,-63.06 0,-22.16 5.84,-43.92 16.9,-63.05 22.99,-39.55 65.85,-64.05 111.89,-64.05l129.97 0c56.56,0 104.22,37.68 118.57,89.02 2.9,10.32 4.44,21.16 4.44,32.35l-88.36 0c0,-14.97 -9.82,-27.75 -23.41,-32.35l-141.21 0c-21.28,0 -38.54,17.08 -38.54,38.08 0,20.94 17.26,38.09 38.54,38.09l121.99 0c46.05,0 88.91,24.49 111.84,64.03z"/>
    <polygon class="fil2" points="1042.84,323.94 1032.2,347.27 971.91,479.09 944.72,539.17 889.16,660.48 852.52,742.74 833.01,742.74 730.76,516.42 627.31,742.74 607.81,742.74 429.3,347.27 418.66,323.94 517.38,323.94 522.11,333.28 618.45,545.59 684.65,400.93 715.39,333.28 720.12,323.94 741.98,323.94 746.12,333.28 777.45,400.93 843.07,545.59 874.98,475.01 900.99,418.43 939.41,333.28 944.13,323.94 "/>
    <path class="fil2" d="M2028.01 552.66c11.06,19.09 16.91,40.89 16.91,63.06 0,22.11 -5.85,43.92 -16.91,63 -22.92,39.55 -65.78,64.03 -111.89,64.03l-127.72 0c-56.64,0 -104.27,-37.73 -118.63,-88.95 -2.85,-10.32 -4.44,-21.16 -4.44,-32.35l88.37 0c0,14.92 9.81,27.69 23.4,32.35l139.02 0c21.23,0 38.54,-17.08 38.54,-38.08 0,-21.06 -17.31,-38.02 -38.54,-38.02l-121.94 0c-36.11,0 -70.16,-15.11 -94.27,-40.61 -6.73,-7.04 -12.65,-14.93 -17.62,-23.49 -11.04,-19.08 -16.96,-40.96 -16.96,-63.06 0,-22.16 5.92,-43.92 16.96,-63.05 22.93,-39.55 65.73,-64.05 111.89,-64.05l129.93 0c56.57,0 104.27,37.68 118.56,89.02 2.96,10.32 4.44,21.16 4.44,32.35l-88.37 0c0,-14.97 -9.75,-27.75 -23.4,-32.35l-141.16 0c-21.28,0 -38.59,17.08 -38.59,38.08 0,20.94 17.31,38.09 38.59,38.09l121.94 0c46.11,0 88.97,24.49 111.89,64.03z"/>
    <path class="fil2" d="M2226.47 474.77l90.26 0 0 268.02 -90.26 0 0 -268.02zm239.45 -151.13l0 89.07 -149.19 0 -90.26 0 -143.15 0 0 -89.07 382.6 0z"/>
    <polygon class="fil2" points="2620.43,742.79 2530.17,742.79 2530.17,322.83 2620.43,322.83 "/>
    <path class="fil2" d="M2774.68 422.54l-90.26 89.07 0 -187.92 90.26 0 0 98.85zm316.65 320.23l-127.68 0 -4.91 -4.91 -143.57 -141.68 -40.49 39.9 0 106.69 -90.26 0 0 -143.38 145.3 -143.36 -0.12 -0.05 134.05 -132.29 127.61 0 -28.84 28.45 -183.53 181.11 183.58 181.05 28.86 28.47z"/>
    <polygon class="fil0" points="1650.17,746.41 1639.18,746.41 1631.02,746.41 1286.42,54.06 947.32,746.41 940.46,746.41 930.53,746.41 1276.95,34.81 1281.69,24.91 1286.42,15.57 1291.14,24.91 1295.87,34.23 "/>
   </g>
   <path class="fil1 str1" d="M1312.22 518.85c0,14.52 -11.93,26.24 -26.59,26.24 -14.73,0 -26.66,-11.72 -26.66,-26.24 0,-14.53 11.93,-26.25 26.66,-26.25 14.66,0 26.59,11.72 26.59,26.25z"/>
  </g>
 </g>
</svg>
